<svg width="47" height="48" viewBox="0 0 47 48" fill="none" xmlns="http://www.w3.org/2000/svg">
<path d="M42.5154 17.4201C44.9634 14.9201 43.8471 12.0001 42.5154 10.5801L36.6404 4.5801C34.1729 2.0801 31.3334 3.2201 29.943 4.5801L26.6138 8.0001H21.5417C17.8209 8.0001 15.6667 10.0001 14.57 12.3001L5.87503 21.1801V29.1801L4.48462 30.5801C2.0367 33.1001 3.15295 36.0001 4.48462 37.4201L10.3596 43.4201C11.4171 44.5001 12.553 44.9001 13.63 44.9001C15.0205 44.9001 16.2934 44.2001 17.0571 43.4201L22.3446 38.0001H29.375C32.7042 38.0001 34.3884 35.8801 34.9955 33.8001C37.2084 33.2001 38.4225 31.4801 38.9121 29.8001C41.9475 29.0001 43.0834 26.0601 43.0834 24.0001V18.0001H41.9279L42.5154 17.4201ZM39.1667 24.0001C39.1667 24.9001 38.7946 26.0001 37.2084 26.0001H35.25V28.0001C35.25 28.9001 34.878 30.0001 33.2917 30.0001H31.3334V32.0001C31.3334 32.9001 30.9613 34.0001 29.375 34.0001H20.7388L14.3154 40.5601C13.7084 41.1401 13.3559 40.8001 13.1405 40.5801L7.28503 34.6201C6.71712 34.0001 7.05003 33.6401 7.26545 33.4201L9.7917 30.8201V22.8201L13.7084 18.8201V22.0001C13.7084 24.4201 15.275 28.0001 19.5834 28.0001C23.8917 28.0001 25.4584 24.4201 25.4584 22.0001H39.1667V24.0001ZM39.7346 14.5801L36.4055 18.0001H21.5417V22.0001C21.5417 22.9001 21.1696 24.0001 19.5834 24.0001C17.9971 24.0001 17.625 22.9001 17.625 22.0001V16.0001C17.625 15.0801 17.958 12.0001 21.5417 12.0001H28.2196L32.6846 7.4401C33.2917 6.8601 33.6442 7.2001 33.8596 7.4201L39.715 13.3801C40.283 14.0001 39.95 14.3601 39.7346 14.5801Z" fill="#1425A3"/>
</svg>
