<svg width="48" height="48" viewBox="0 0 48 48" fill="none" xmlns="http://www.w3.org/2000/svg">
<rect x="5" y="3" width="40" height="41" fill="#1425A3" fill-opacity="0.3"/>
<path d="M46.5 46C47.0523 46 47.5 45.5523 47.5 45C47.5 44.4477 47.0523 44 46.5 44V45V46ZM3.5 45V46H46.5V45V44H3.5V45Z" fill="#1425A3"/>
<path d="M5.5 1.99992C5.5 1.44764 5.05228 0.99992 4.5 0.99992C3.94772 0.99992 3.5 1.44764 3.5 1.99992H4.5H5.5ZM4.5 44H5.5L5.5 1.99992H4.5H3.5L3.5 44H4.5Z" fill="#1425A3"/>
<path d="M16.9199 22.972V15.472C16.9199 15.024 17.0772 14.6426 17.3919 14.328C17.7052 14.0133 18.0865 13.856 18.5359 13.856C18.9852 13.856 19.3665 14.0133 19.6799 14.328C19.9945 14.6426 20.1519 15.024 20.1519 15.472V22.972C20.1519 23.4213 19.9945 23.8026 19.6799 24.116C19.3652 24.4306 18.9839 24.588 18.5359 24.588C18.0879 24.588 17.7065 24.4306 17.3919 24.116C17.0772 23.8013 16.9199 23.42 16.9199 22.972ZM25.6139 25.56V7.47196C25.6139 7.02396 25.7705 6.64262 26.0839 6.32796C26.3985 6.01329 26.7799 5.85596 27.2279 5.85596C27.6772 5.85596 28.0585 6.01329 28.3719 6.32796C28.6865 6.64262 28.8439 7.02396 28.8439 7.47196V25.56C28.8439 26.0986 28.6785 26.5026 28.3479 26.772C28.0159 27.0413 27.6445 27.176 27.2339 27.176C26.8232 27.176 26.4499 27.0413 26.1139 26.772C25.7779 26.5026 25.6112 26.0986 25.6139 25.56ZM8.15186 29.844V23.472C8.15186 23.024 8.30852 22.6426 8.62186 22.328C8.93652 22.0133 9.31852 21.856 9.76786 21.856C10.2172 21.856 10.5985 22.0133 10.9119 22.328C11.2252 22.6426 11.3819 23.024 11.3819 23.472V29.846C11.3819 30.3846 11.2165 30.788 10.8859 31.056C10.5552 31.3253 10.1839 31.46 9.77186 31.46C9.36119 31.46 8.98786 31.3253 8.65186 31.056C8.31852 30.788 8.15186 30.3846 8.15186 29.846M10.3219 41.572C9.87519 41.572 9.56652 41.3686 9.39585 40.962C9.22519 40.5566 9.30252 40.1906 9.62786 39.864L17.4439 32.05C17.7332 31.7593 18.0899 31.5973 18.5139 31.564C18.9379 31.5306 19.3145 31.6593 19.6439 31.95L25.6139 37.08L39.1199 23.572H35.5359C35.2519 23.572 35.0145 23.476 34.8239 23.284C34.6332 23.092 34.5372 22.854 34.5359 22.57C34.5345 22.286 34.6305 22.0486 34.8239 21.858C35.0172 21.6673 35.2545 21.572 35.5359 21.572H40.9199C41.3785 21.572 41.7625 21.7266 42.0719 22.036C42.3812 22.3453 42.5359 22.7293 42.5359 23.188V28.572C42.5359 28.856 42.4399 29.0933 42.2479 29.284C42.0559 29.4746 41.8179 29.5706 41.5339 29.572C41.2499 29.5733 41.0125 29.4773 40.8219 29.284C40.6312 29.0906 40.5359 28.8533 40.5359 28.572V24.988L26.7279 38.796C26.4385 39.0853 26.0819 39.2466 25.6579 39.28C25.2339 39.3133 24.8572 39.1846 24.5279 38.894L18.5579 33.764L11.0439 41.28C10.9585 41.36 10.8512 41.4286 10.7219 41.486C10.5925 41.5433 10.4592 41.572 10.3219 41.572Z" fill="#1425A3"/>
</svg>
